<?xml version="1.0" encoding="UTF-8" standalone="no"?>
<svg xmlns:rdf="http://www.w3.org/1999/02/22-rdf-syntax-ns#" xmlns="http://www.w3.org/2000/svg" height="947.81" viewBox="0 0 744.375 947.8125" width="744.38" version="1.1" xmlns:cc="http://creativecommons.org/ns#" xmlns:dc="http://purl.org/dc/elements/1.1/">
<path d="m370.61 946.8c-3.7591-1.1092-3.8044-1.4851-4.5075-37.423-0.2875-14.695-0.91722-40.008-1.3994-56.25-1.1667-39.303-1.1699-47.118-0.0188-46.406 0.51562 0.31867 0.9375-0.0783 0.9375-0.88217-0.00004-0.80387-0.42192-1.4616-0.93754-1.4616-0.51563 0-0.93104-2.2148-0.92315-4.9219 0.0103-3.5235 0.27255-4.5223 0.92315-3.5156 0.63952 0.98958 0.91304-0.3596 0.92315-4.5534 0.0117-4.8509 0.2704-5.8614 1.3906-5.4316 0.75693 0.29045 1.6534 0.0796 1.9922-0.46855 0.4095-0.66258 0.88611-0.57029 1.4219 0.27533 0.62784 0.99085 0.80913 0.90937 0.82032-0.36867 0.0163-1.8665-0.76301-2.0115-4.0644-0.75636-1.2792 0.48635-2.5233 1.6465-2.7648 2.5781-0.33796 1.3041-0.46401 1.1941-0.54774-0.47777-0.0899-1.796-0.55477-2.1203-2.6869-1.875l-2.5781 0.29664-0.46875 12.188-0.46875 12.188-72.574-0.19943c-41.597-0.11431-72.209 0.15137-71.719 0.62246 0.47062 0.45203 32.074 1.093 70.231 1.4245 38.156 0.33143 70.506 0.81667 71.888 1.0783l2.5128 0.47574 0.19876 27.83c0.29515 41.326-0.0495 94.162-0.62635 96.034-1.9851 6.4399-2.4242-0.38594-1.8547-28.828 0.39577-19.765 0.28611-30.469-0.31215-30.469-0.50725 0-4.4889 4.1133-8.8481 9.1406s-9.8726 11.25-12.252 13.828c-2.3794 2.5781-5.9022 6.7164-7.8286 9.1963-13.138 16.912-30.255 34.685-32.555 33.803-1.4003-0.53737-1.4628-0.81403-0.37585-1.6655 2.1457-1.681 19.6-20.971 28.069-31.021 8.5284-10.121 9.2305-10.907 30.983-34.688 2.4584-2.6877 3.5699-4.8787 3.9235-7.7344 0.76809-6.2024 0.1806-5.8583-10.109 5.9202-5.4602 6.2501-14.953 16.469-29.49 31.747-3.89 4.0882-8.6294 9.1507-10.532 11.25-1.9027 2.0993-6.1767 6.77-9.4977 10.379-3.321 3.6094-7.4317 8.1445-9.1349 10.078-1.7032 1.9336-3.6518 3.5156-4.3304 3.5156-1.6729 0-1.56-0.50503 0.67388-3.0138 1.0492-1.1784 4.0713-4.6737 6.7159-7.7675 2.6445-3.0938 9.2744-10.238 14.733-15.876 5.4586-5.6381 11.401-12.014 13.206-14.169 3.9192-4.6796 28.043-31.255 33.015-36.371 3.431-3.5298 3.4694-3.6489 1.8843-5.8299-2.7158-3.7368-3.7822-2.9155-24.118 18.576-28.652 30.28-57.946 60.186-59.297 60.536-3.1714 0.8203-0.0198-3.2041 12.295-15.7 7.407-7.5159 15.739-16.178 18.516-19.249 5.8976-6.5227 27.557-28.835 39.874-41.075l8.5753-8.5222-1.9547-2.6439c-2.8309-3.829-2.7757-3.8646-16.602 10.684-38.464 40.472-63.422 64.674-61.719 59.85 0.31526-0.89265 18.322-19.414 54.56-56.119l19.719-19.973-1.5334-2.5272c-2.4173-3.9839-3.1582-3.4919-21.89 14.538-9.7515 9.3858-19.831 18.878-22.4 21.094-2.5684 2.2158-10.925 10.146-18.57 17.622-12.773 12.491-16.603 15.577-16.603 13.376 0-0.87925 27.656-28.28 37.039-36.697 3.0897-2.7716 10.71-9.9435 16.935-15.938 6.2244-5.994 13.56-12.973 16.301-15.51 3.4266-3.1705 4.7241-4.9729 4.1517-5.7672-0.45794-0.63545-2.8365-3.7328-5.2857-6.883s-4.4531-6.0745-4.4531-6.4984c0-0.42391-6.8555-0.84353-15.234-0.9325-22.166-0.23535-66.996-1.0659-86.484-1.6022-9.2812-0.25543-24.469-0.6652-33.75-0.91062-43.338-1.1459-48.791-1.4288-98.906-5.1302-13.148-0.97113-30.867-2.2436-39.375-2.8278-41.08-2.82-53.45-4.53-53.45-7.39 0-1.8728 1.9279-1.9677 11.807-0.58091 5.545 0.77839 10.395 1.4152 10.778 1.4152 0.38269 0 0.88807-4.957 1.1231-11.016 0.5266-13.576 1.7423-22.237 7.205-51.328 0.96823-5.1562 2.6502-14.438 3.7378-20.625 3.1648-18.006 5.7933-31.483 7.2222-37.031 0.73038-2.8359 1.6927-7.6875 2.1385-10.781 1.2806-8.8868 9.7501-42.644 13.642-54.375 0.68433-2.0625 2.9842-9.4453 5.1108-16.406 6.1239-20.045 8.6002-27.586 9.3902-28.594 0.40416-0.51563 0.96692-2.2031 1.2506-3.75 0.90852-4.9544 10.817-32.939 14.775-41.728l3.8269-8.4991-2.8491-3.2449c-2.8234-3.2156-7.4035-10.03-12.322-18.334-3.586-6.0537-9.0259-20.162-9.8205-25.471-0.36762-2.4556-1.0676-4.7114-1.5555-5.0129-0.48793-0.30156-1.2929-1.6156-1.7889-2.9201l-0.90176-2.3718-10.994 0.61424c-6.0464 0.33782-12.259 0.2435-13.806-0.20961l-2.8125-0.82384 3.75-1.7044c2.9903-1.3591 6.8837-1.7854 19.219-2.104 11.808-0.30502 15.833-0.72398 17.008-1.7705 0.84668-0.75402 4.8545-2.7971 8.9062-4.5402 8.7214-3.752 9.0808-4.3002 11.065-16.88 1.7885-11.338 4.0251-20.699 5.7394-24.022 0.69783-1.3526 1.0138-2.7143 0.70209-3.026-0.31169-0.31169 0.0724-2.3691 0.85343-4.572 0.78108-2.2029 1.9484-5.9037 2.5941-8.224 0.64569-2.3203 1.72-6.1172 2.3872-8.4375 0.66729-2.3203 1.4823-5.9062 1.8111-7.9688 0.3288-2.0625 1.173-5.4375 1.876-7.5 0.70298-2.0625 2.4232-8.6016 3.8227-14.531 2.9187-12.367 7.6272-29.586 8.8441-32.344 0.45505-1.0312 2.1229-5.8828 3.7064-10.781 12.629-39.069 20.164-59.954 25.638-71.061 1.7535-3.5581 1.8442-4.3803 0.77558-7.0312-3.5066-8.6994-8.4436-28.393-9.4483-37.689-0.61297-5.6719-1.4132-11.578-1.7782-13.125l-0.6637-2.8125-10.513-0.26508c-8.2903-0.20902-10.513-0.54425-10.513-1.5853 0-2.3766 1.6267-2.5223 32.617-2.922 16.866-0.21755 37.067-0.74784 44.891-1.1784l14.226-0.78286 6.3987-3.7367c3.5193-2.0552 8.3683-4.4643 10.776-5.3535 2.4073-0.88921 8.8805-4.2317 14.385-7.4277 5.5043-3.196 11.835-6.8656 14.068-8.1547 2.2328-1.2891 5.0681-3.293 6.3007-4.4531 1.2325-1.1602 2.6894-2.1094 3.2376-2.1094 0.54816 0 1.5683-0.68873 2.2669-1.5305 0.69863-0.8418 2.5869-2.4238 4.1961-3.5156 4.9133-3.3335 17.088-12.682 19.4-14.896 1.1993-1.1488 5.0985-4.8309 8.6648-8.1824 5.5698-5.2345 22.622-24.608 31.907-36.251 3.316-4.1581 10.49-15.948 13.024-21.405 0.95796-2.0625 4.1708-8.6803 7.1395-14.706 6.4956-13.184 7.0225-20.506 1.7019-23.649-2.9399-1.7366-3.5495-3.3598-3.8839-10.341-0.22479-4.6925 2.5752-8.0748 5.2937-6.3946 0.51307 0.3171-0.0273 1.005-1.2008 1.5286-1.742 0.77732-2.0327 1.4568-1.5836 3.7022 0.30252 1.5126 0.55003 3.5077 0.55003 4.4335 0 2.377 4.1788 3.0165 9.8438 1.5065 4.6779-1.2469 4.687-1.257 4.4584-4.9149-0.33959-5.4346-0.78106-6.0092-4.6165-6.0092-2.5364 0-3.2157-0.28249-2.4706-1.0275 1.3802-1.3802 6.1839-1.3851 12.602-0.012985l5.2862 1.1301 0.64494 6.0224c0.74466 6.9535 0.45262 7.6749-3.8318 9.4651-3.6269 1.5154-3.68 1.7158-1.7066 6.4388 1.2922 3.0927 1.7506 3.4301 3.9844 2.9328 7.1237-1.5859 11.469-1.6314 18.032-0.18878 3.8458 0.8454 11.211 1.6577 16.367 1.8052 9.8288 0.28106 13.088 1.2916 21.562 6.6853 7.9739 5.0752 8.7965 5.2391 23.183 4.6201 13.285-0.57163 14.828-0.36144 19.95 2.7169 7.7801 4.6761 9.0684 7.9009 9.619 24.078l0.43151 12.679 5.049 9.9421c3.1238 6.1511 5.0552 11.156 5.0652 13.125 0.009 1.7506 0.64177 6.1359 1.4062 9.7451 3.092 14.597 1.8111 18.053-4.9036 13.229-4.7993-3.448-6.9671-4.2346-12.925-4.6902-2.0625-0.15773-7.3359-0.83738-11.719-1.5103-7.061-1.0842-8.5828-1.0439-13.359 0.35346-7.4092 2.1676-7.9611 1.3086 8.2031 12.767 6.3047 4.4691 38.352 23.432 50.299 29.763 2.1781 1.1542 4.387 2.5253 4.9086 3.0469 0.52158 0.52158 1.6022 0.95009 2.4014 0.95226 0.79922 0.002 3.5285 1.0568 6.0651 2.3438 2.5366 1.2869 5.1524 2.3398 5.8128 2.3398 0.66043 0 1.5382 0.52919 1.9505 1.176 0.41234 0.6468 3.2793 2.0162 6.371 3.0432s6.3927 2.6386 7.3355 3.5814c1.3774 1.3774 4.1412 1.8879 14.066 2.5982 15.208 1.0885 36.628 3.415 47.3 5.1375 4.866 0.7854 2.5491 2.5136-2.4709 1.8431-4.1533-0.55476-4.4277-0.44636-6.0088 2.3737-1.4027 2.5019-2.0887 2.8916-4.4739 2.5416-2.4301-0.35666-3.4034 0.24083-7.0846 4.3491-10.834 12.091-18.102 18.904-22.693 21.271-1.3911 0.71728-3.0467 1.9942-3.6792 2.8376-0.63251 0.84342-2.2145 1.8007-3.5156 2.1272-1.9026 0.47753-2.3656 1.1715-2.3656 3.546 0 4.194 1.9411 15.135 2.861 16.126 0.91961 0.99041 10.55-6.8508 15.648-12.741 1.9692-2.2752 4.1164-4.7454 4.7714-5.4891 2.0738-2.3546 7.5639-10.617 8.9966-13.54 5.1657-10.538 9.0374-16.74 8.4863-13.594-0.50327 2.8728-4.0036 10.72-7.322 16.414-6.8683 11.786-17.925 24.219-26.644 29.961-4.8708 3.2076-4.8642 2.9252-0.64501 27.687 0.74677 4.3828 1.522 9.0234 1.7226 10.312 0.88897 5.7108 4.5124 22.205 5.2517 23.906 0.44815 1.0312 1.9386 6.7266 3.3122 12.656 2.381 10.279 10.361 35.751 13.07 41.719 1.0529 2.3194 5.2751 12.021 9.8944 22.734 0.50021 1.1602 1.2758 3.0586 1.7235 4.2188 0.44771 1.1602 2.9866 6.5391 5.642 11.953 2.6554 5.4141 4.8203 10.313 4.811 10.887-0.009 0.57363 1.2906 2.683 2.8888 4.6875 3.2672 4.0979 6.8287 10.629 6.1606 11.297-2.0962 2.0962-33.441-58.897-33.441-65.072 0-0.51773-1.0975-3.4196-2.439-6.4486-1.3414-3.029-3.4262-8.8823-4.6327-13.007-5.6146-19.195-6.9688-24.156-9.3408-34.219-1.3977-5.9297-3.5173-14.789-4.7101-19.688-2.5688-10.549-4.527-22.82-6.508-40.781-0.79618-7.2188-1.6198-14.602-1.8302-16.406-2.1973-18.846-2.6854-34.334-1.0299-32.678 0.61358 0.61359 2.311 12.885 2.51 18.146 0.21195 5.6035 3.428 6.406 7.8701 1.9639 0.72093-0.72093 2.904-2.2814 4.8513-3.4676 8.2379-5.0185 26.384-26.366 23.78-27.975-0.616-0.38072-7.3203-1.1989-14.898-1.8183-7.5782-0.61934-15.503-1.3014-17.61-1.5158-2.1076-0.21435-10.334-0.60967-18.281-0.87851-7.9471-0.26883-20.674-0.93263-28.283-1.4751-7.6084-0.54248-18.685-1.1344-24.616-1.3154-7.0417-0.21493-11.293-0.75274-12.254-1.5503-1.1763-0.97628-1.6176-0.98472-2.2002-0.0421-0.52162 0.84398-2.5663 1.0402-7.1942 0.6903-3.556-0.26884-13.637-0.70144-22.403-0.96135-8.7656-0.2599-21.211-0.70616-27.656-0.99168-25.949-1.1495-60.733-1.7638-100.78-1.7799-37.071-0.0148-56.955 0.53841-99.844 2.778-5.9297 0.30963-14.789 0.53626-19.688 0.50359-11.759-0.0784-11.899-0.0135-15.052 7.0141-1.4887 3.318-3.7352 7.3916-4.9922 9.0524-2.849 3.7643-19.033 37.103-22.629 46.614-0.87718 2.3203-2.1471 5.4844-2.822 7.0312-0.67492 1.5469-2.1427 5.1328-3.2618 7.9688-1.1191 2.8359-2.8974 7.2656-3.9518 9.8438-1.6994 4.155-8.8043 24.773-17.607 51.094-1.6382 4.8984-4.8444 16.289-7.125 25.312-4.9828 19.716-5.937 23.251-7.0342 26.064-0.46288 1.1865-1.4745 5.4053-2.2481 9.375s-2.4165 10.593-3.651 14.718c-1.2344 4.125-3.1256 11.086-4.2025 15.469-1.0769 4.3828-2.8126 11.12-3.857 14.971-2.459 9.0669-2.021 9.9671 1.8039 3.7072 1.7086-2.7963 5.0592-7.3504 7.4459-10.12 2.3867-2.7698 5.6799-6.6928 7.3182-8.7178 3.8975-4.8173 7.8025-7.9229 7.8025-6.2053 0 0.69895-0.81625 2.3116-1.8139 3.5837-16.147 20.589-26.47 34.674-20.518 27.997 4.5588-5.1148 16.37-18.967 19.366-22.712 2.7018-3.3775 5.324-6.2569 12.409-13.627 4.3521-4.5271 11.865-10.439 13.266-10.439 2.4108 0-0.34064 3.6279-7.943 10.473-9.2423 8.3218-15.266 14.79-34.19 36.715-5.5352 6.413-0.64001 2.3774 11.014-9.0799 13.066-12.846 28.842-25.961 37.238-30.959 3.9553-2.3543-0.15427 2.2561-7.9682 8.9394-5.0271 4.2996-9.7952 8.4503-10.596 9.2238-0.80063 0.77344-5.0196 4.6379-9.3755 8.5876-20.51 18.598-26.205 24.841-11.621 12.74 8.9501-7.4261 21.37-16.641 22.429-16.641 0.19411 0 3.7899-2.1094 7.9906-4.6875 8.1682-5.0132 9.375-5.4443 9.375-3.3493 0 1.4286-4.2933 5.2243-5.9092 5.2243-1.3628 0-25.863 16.238-25.919 17.178-0.0255 0.42456 2.1685-0.48031 4.8755-2.0108 10.778-6.094 23.425-12.446 23.878-11.993 1.0351 1.035-5.4891 5.4843-18.253 12.448-15.207 8.2966-16.76 9.8989-5.625 5.8039 4.2539-1.5644 10.266-3.6142 13.359-4.5551 3.0938-0.94091 8.1562-2.543 11.25-3.5602 29.512-9.7031 41.812-12.512 92.812-21.197 16.5-2.8097 32.32-5.3823 35.156-5.7169 2.8359-0.33459 6.2396-0.77833 7.5637-0.98608 26.553-4.1661 79.187-6.6044 110.56-5.122 22.03 1.0409 22.405 1.0703 43.594 3.4093 7.2188 0.79689 14.602 1.5643 16.406 1.7053 10.972 0.85734 47.603 8.2072 61.28 12.296 2.5084 0.74982 5.1755 1.3633 5.9268 1.3633 0.75132 0 5.238 1.2365 9.9705 2.7477 4.7324 1.5112 11.979 3.8024 16.104 5.0913 13.683 4.2757 34.089 11.511 35.335 12.529 0.67523 0.55163 3.3656 1.6332 5.9787 2.4036 2.613 0.77034 6.6738 2.2766 9.0239 3.3472s6.0223 2.2263 8.1604 2.5682c2.1381 0.34191 4.1066 0.97609 4.3743 1.4093 1.013 1.639 9.1172 4.5589 11.201 4.0358 1.3497-0.33877 2.447-0.0393 2.9451 0.80371 0.985 1.6672 5.0863 2.7398 6.6889 1.7494 1.5353-0.94886-2.0243-5.7478-4.2634-5.7478-1.1238 0-0.80442 0.74095 1.2399 2.8769l2.7535 2.8769-2.8125-1.0441c-1.5469-0.57424-3.3236-1.7164-3.9484-2.5381-0.62475-0.82171-2.068-1.9629-3.2072-2.5359-2.3544-1.1843-3.4391-3.3856-1.6682-3.3856 0.6469 0 1.9503 0.70054 2.8964 1.5568 0.94611 0.85621 2.0154 1.2616 2.3762 0.90079 0.36077-0.36078-1.4348-2.5856-3.9901-4.944-9.6126-8.8718-13.258-12.477-19.413-19.197-9.2725-10.123-19.517-23.39-18.87-24.436 0.77184-1.2489 5.3077 3.2491 10.264 10.178 2.2729 3.1777 4.454 5.9198 4.8467 6.0938 0.39276 0.17388 2.2538 2.2146 4.1356 4.5349 8.8794 10.949 19.421 20.272 16.694 14.766-1.1108-2.2431 1.6673 0.76795 11.945 12.947 3.5074 4.1561 8.4864 9.3388 11.064 11.517 2.5781 2.1782 6.8904 5.9926 9.5828 8.4763l4.8954 4.5159 8.9166 0.156c9.2918 0.16258 14.19 1.2801 13.13 2.9956-0.41407 0.66999-3.3631 0.78763-8.8954 0.35485l-8.276-0.64742-1.0594 3.9345c-2.6744 9.9318-25.565 36.997-40.325 47.68-10.346 7.4878-9.5798 6.4764-8.9287 11.788 0.32348 2.6389 0.9844 6.6965 1.4687 9.0168s1.7091 9.2812 2.7217 15.469c1.0126 6.1875 2.954 15.891 4.3142 21.562 2.6905 11.219 3.4973 14.67 4.9319 21.094 0.51817 2.3203 1.6236 6.5391 2.4565 9.375s2.9904 10.852 4.7944 17.812c1.804 6.9609 3.6565 13.711 4.1167 15 0.46018 1.2891 2.3942 6.5625 4.2979 11.719 1.9037 5.1562 4.5438 12.328 5.8671 15.938 1.3232 3.6094 6.382 14.789 11.242 24.844 4.8597 10.055 11.119 23.344 13.91 29.531 2.7908 6.1875 5.7033 12.444 6.4723 13.904 0.76898 1.4598 1.3982 3.0712 1.3982 3.5811 0 0.50985 1.2014 2.6905 2.6697 4.8459s4.6816 7.7158 7.1405 12.356c2.459 4.6406 5.0807 9.1325 5.8261 9.982 1.3706 1.562 3.6734 4.919 10.677 15.566 5.0278 7.6426 4.9552 7.6159 16.634 6.1231 13.196-1.6866 18.186-1.8785 18.599-0.71522 0.75473 2.1246-5.9631 4.3726-13.856 4.6368-4.3162 0.14448-15.23 1.5355-24.254 3.0912-9.0234 1.5557-22.945 3.5193-30.938 4.3636-7.9922 0.84431-17.111 1.9455-20.264 2.4471-3.1532 0.5016-7.924 0.912-10.602 0.912-2.6777 0-7.6916 0.41117-11.142 0.91371-8.77 1.2773-88.55 6.9448-111.27 7.9047-5.6719 0.2396-20.016 1.0756-31.875 1.8579-24.166 1.594-44.38 2.4387-69.171 2.8906-16.4 0.29893-16.802 0.35422-18.25 2.51-0.81449 1.2124-4.2109 5.0702-7.5476 8.573l-6.0667 6.3687 2.7116 2.0688c1.4914 1.1378 7.1384 6.644 12.549 12.236 5.4106 5.5919 18.272 18.459 28.581 28.594 28.666 28.182 31.721 31.279 34.614 35.093 5.6607 7.4631 1.1238 4.0712-11.84-8.8524-7.4146-7.3913-22.32-22.097-33.124-32.678-10.803-10.582-22.893-22.765-26.866-27.075l-7.2237-7.8352-2.6047 3.0956c-1.6059 1.9085-2.1854 3.2353-1.5112 3.4601 0.60145 0.20048 7.0913 6.7724 14.422 14.604 7.3306 7.8319 17.589 18.678 22.797 24.102 29.183 30.393 32.923 34.67 30.326 34.67-1.1652 0-5.9107-4.6124-29.78-28.945-2.8455-2.9007-7.6929-8.438-10.772-12.305-3.0791-3.8672-9.6224-11.039-14.541-15.938-4.9182-4.8984-9.9081-10.277-11.089-11.953-2.6015-3.6925-3.8164-3.7955-6.7774-0.57451-1.7455 1.8987-1.9679 2.5804-0.95856 2.9381 2.2307 0.7905 19.877 19.34 30.59 32.156 1.0472 1.2527 5.4526 6.2855 9.7898 11.184 4.3372 4.8984 8.7539 9.9065 9.8148 11.129s3.9684 4.2343 6.4609 6.6928c3.1645 3.1213 4.1824 4.6861 3.3734 5.1861-0.68365 0.42251-1.6513 0.0421-2.3606-0.9279-0.66113-0.90416-5.5542-6.16-10.873-11.68-5.3192-5.5197-11.57-12.316-13.89-15.102-4.1585-4.9939-11.281-13.061-14.67-16.616-9.9304-10.416-16.583-17.116-16.786-16.906-1.4534 1.4942-0.5214 8.4976 1.4332 10.77 2.4142 2.8067 20.014 22.228 22.454 24.778 0.81198 0.84857 5.2732 5.8649 9.9138 11.147 4.6406 5.2825 11.285 12.734 14.766 16.56 5.4645 6.006 7.979 10.718 5.625 10.541-0.38672-0.0291-4.0781-4.0938-8.2031-9.0328s-11.719-13.691-16.875-19.45c-5.1562-5.7585-13.986-15.805-19.621-22.325-5.6356-6.5201-10.539-11.674-10.897-11.452-1.1287 0.6976 0.17643 11.178 1.4856 11.93 0.68087 0.39094 7.4633 8.1483 15.072 17.238 7.6087 9.0902 15.044 17.841 16.522 19.445 1.4785 1.6048 4.4462 5.238 6.5948 8.074 2.1486 2.8359 5.5026 6.9398 7.4534 9.1197 3.6684 4.0991 4.3992 5.9001 2.3751 5.8531-1.0657-0.0253-9.2164-9.5811-14.585-17.1-1.1896-1.6661-3.5524-4.5058-5.2507-6.3105s-3.6782-4.1705-4.3997-5.2573c-1.1004-1.6575-11.202-13.301-14.484-16.693-0.5415-0.55987-2.7696-3.4437-4.9514-6.4086-2.1818-2.9648-4.3791-5.3906-4.883-5.3906-0.5682 0-0.66086 2.0472-0.24399 5.3906 0.92263 7.3996 0.71764 43.18-0.29674 51.797-0.91243 7.7504-1.5159 8.2682-7.5584 6.4852zm-0.74216-45.157c-0.26367-4.7695-0.95343-21.75-1.5328-37.734-0.61271-16.904-1.4507-29.455-2.003-30-0.64065-0.63251-0.77178 1.6549-0.40308 7.0312 0.30056 4.3828 1.0195 20.836 1.5977 36.562 1.0236 27.841 1.3797 32.812 2.3507 32.812 0.25839 0 0.25409-3.9023-0.01-8.6719zm2.0702-23.438c-0.18937-2.707-0.34432-0.49218-0.34432 4.9219s0.15495 7.6289 0.34432 4.9219c0.18938-2.707 0.18938-7.1367 0-9.8438zm1.26-11.95c0.98829 0 1.7969-0.42188 1.7969-0.9375 0-0.51563-0.81829-0.9375-1.8184-0.9375-1.4109 0-1.9008-0.78787-2.1862-3.5156-0.2412-2.3058-0.39651-1.5799-0.45133 2.1094-0.0459 3.0938 0.12921 5.0977 0.38928 4.4531 0.26007-0.64453 1.2815-1.1719 2.2697-1.1719zm-16.974-14.297-0.0208-3.9844-1.7946 2.3358c-1.6465 2.1431-1.6715 2.4718-0.3026 3.9844 2.056 2.2718 2.1416 2.1774 2.118-2.3358zm13.832-12.188c-0.19738-2.1914-0.35888-0.39843-0.35888 3.9844s0.1615 6.1758 0.35888 3.9844c0.19737-2.1914 0.19737-5.7773 0-7.9688zm-16.463 8.0578c2.2838-2.0668 2.1241-3.2634-0.71103-5.3285-2.3213-1.6908-2.4009-1.6842-4.1622 0.34659-2.2668 2.6137-0.91643 5.7698 2.7639 6.4594 0.21721 0.0407 1.1664-0.62417 2.1094-1.4775zm25.31-1.7019c0.80688-1.7709 0.77513-2.6535-0.13489-3.75-1.9606-2.3623-2.8355-1.6477-2.8355 2.316 0 4.2298 1.3907 4.9012 2.9704 1.434zm5.4032-6.9694c2.4391-3.4254 2.4384-4.4922-0.004-5.2672-3.7324-1.1846-7.1656 4.1323-4.4328 6.8651 1.6496 1.6496 2.2873 1.4199 4.4362-1.5978zm-35.929 0.45484c0.60937-1.588-2.191-6.1695-3.771-6.1695-2.6936 0-3.3036 2.1348-1.3814 4.8343 2.049 2.8775 4.3334 3.4695 5.1524 1.3352zm7.87-0.54c0-1.9773-1.364-2.5228-2.3438-0.9375-0.68363 1.1061 0.20313 2.8125 1.4616 2.8125 0.48519 0 0.88217-0.84375 0.88217-1.875zm-2.6519-4.364c2.0908-1.8921 2.2014-3.136 0.27877-3.136-0.78963 0-1.6785-0.63281-1.9753-1.4062-0.7074-1.8434-3.7335-1.81-4.4469 0.0491-1.428 3.7212 3.2311 7.1287 6.1434 4.4931zm24.857-0.48687c2.678-2.5158 2.7657-4.6384 0.25666-6.2053-2.76-1.71-3.72-0.65-3.72 4.09 0 4.7278 0.4138 4.9822 3.4552 2.125zm-35.799-4.2654c0-3.8755-11.538-11.501-12.448-8.2274-0.68067 2.4471 8.6452 11.567 10.573 10.34 1.0312-0.65645 1.875-1.607 1.875-2.1124zm53.357-3.7743 6.4819-6.7969h-4.8083c-3.9167 0-5.0026 0.36306-5.8562 1.9579-0.57632 1.0769-2.5796 3.6534-4.4518 5.7257-3.292 3.6438-3.344 3.8116-1.5814 5.1004 2.5518 1.8659 2.948 1.6337 10.216-5.9872zm-39.778 1.875c-0.0239-2.7274-1.611-4.609-2.846-3.3741-0.79036 0.79036-0.79192 1.5706-0.006 3.039 1.2834 2.3981 2.8717 2.5847 2.852 0.33502zm-9.4216-1.5672c1.715-2.0665-0.61034-4.9412-4.5086-5.5738-4.4598-0.72372-4.5643-0.32338-0.91226 3.4959 3.6015 3.7664 3.9186 3.888 5.4209 2.0779zm37.477 0.44018c0.91733-0.49093 2.8095-2.3894 4.2048-4.2188l2.537-3.3261h-4.2026c-5.4032 0-9.7171 4.6527-6.543 7.0569 2.1177 1.604 1.9554 1.5843 4.0038 0.48799zm-12.441-5.1218c1.1124-0.42686 2.1214-0.0692 2.9378 1.0415 1.1759 1.5997 1.3404 1.5643 3.0262-0.6521l1.7828-2.3438-3.8461-0.29519c-2.4064-0.18469-4.1252 0.15641-4.5917 0.91122-0.792 1.2815-1.1922 0.6247-2.0891-3.4285-0.22819-1.0312-0.43708 0.65625-0.46421 3.75-0.035 3.9875 0.18345 5.0489 0.7503 3.646 0.43979-1.0884 1.5621-2.2716 2.494-2.6292zm-19.36-0.07c0.97327-1.1727 0.84585-1.4062-0.76738-1.4062-2.0532 0-3.3318 1.2133-2.3321 2.213 0.94463 0.94462 1.8393 0.71176 3.0995-0.80674zm0.75846-5.1097c1.8198-0.0273 2.8627-0.43409 2.5228-0.98406-0.76741-1.2417-55.459-1.2806-56.225-0.0399-0.83131 1.3451 13.765 1.6234 53.702 1.024zm-56.07-0.99c0-0.5618-3.8509-0.95121-9.6094-0.97171-5.2852-0.0188-18.258-0.26979-28.828-0.55774-10.57-0.28794-18.868-0.16708-18.44 0.26859 0.69662 0.70875 17.918 1.4461 46.8 2.0038 6.2235 0.12017 10.078-0.16397 10.078-0.7429zm138.02 0c5.6726 0 9.0622-0.34885 8.723-0.89774-0.32175-0.5206-4.7758-0.74006-10.602-0.52239-5.526 0.20644-21.543 0.39949-35.594 0.429-18.737 0.0394-25.547 0.34377-25.547 1.142 0 0.81531 6.7423 0.93293 26.871 0.46875 14.779-0.34082 31.046-0.61967 36.149-0.61967zm49.011-2.0095c9.7969-0.55533 17.988-1.1741 18.203-1.3751 1.1461-1.0721-54.323 1.4574-56.172 2.5616-1.4561 0.86953 5.5729 0.64988 37.969-1.1865zm-280.78 0.2361c0-1.2018-4.2328-2.0924-6.2536-1.3158-1.5061 0.57881-1.4295 0.73868 0.62863 1.312 3.4267 0.9545 5.625 0.95601 5.625 0.004zm27.656-0.13269c-10.156-1.0424-25.598-1.0241-26.25 0.031-0.37926 0.61364 5.1882 0.88655 16.117 0.79 12.902-0.11399 15.205-0.30057 10.133-0.82106zm-46.79-1.06c0.26649-0.4312-2.1771-0.77754-5.4302-0.76965-4.1622 0.0101-5.498 0.28341-4.5085 0.92239 1.676 1.0822 9.2473 0.96584 9.9386-0.15274zm-54.47-1.7215c1.1946-0.51334-1.527-0.76956-7.5-0.70606-9.2477 0.0983-9.2859 0.1079-2.8125 0.70606 3.6094 0.33352 6.9844 0.65124 7.5 0.70606 0.51563 0.0548 1.7812-0.26291 2.8125-0.70606zm26.953 0.25931c-1.6758-0.20795-4.418-0.20795-6.0938 0-1.6758 0.20797-0.30468 0.37812 3.0469 0.37812s4.7227-0.17015 3.0469-0.37812zm226.18-0.26c0.36-0.58-1.26-0.94-4.22-0.94s-4.5762 0.35915-4.2188 0.9375c0.31867 0.51562 2.2171 0.9375 4.2188 0.9375 2.0016 0 3.9001-0.42188 4.2188-0.9375zm72.422 0.0303c4.312-0.55686-1.6714-1.8723-7.0312-1.5458-3.9961 0.24342-19.816 0.47306-35.156 0.5103-20.144 0.0489-27.891 0.36331-27.891 1.132 0 0.79912 63.823 0.7112 70.078-0.0965zm-86.766-11.535-0.86599-8.6518-0.10082 10.312c-0.0732 7.4921 0.16358 9.8583 0.86598 8.6518 0.6472-1.1117 0.68054-4.5209 0.10083-10.312zm116.92 9.968c0.94137-0.81595-25.847-0.21612-27.109 0.607-0.92903 0.60573 3.366 0.71575 12.656 0.32423 7.7344-0.32596 14.238-0.74502 14.453-0.93123zm73.427 0.87336c-1.1662-0.22424-2.8537-0.21573-3.75 0.0189-0.89633 0.23465 0.0579 0.41813 2.1203 0.40772 2.0625-0.0104 2.7959-0.2024 1.6297-0.42664zm-456.1-0.95864c-1.9451-0.20294-4.8982-0.19954-6.5625 0.007-1.6643 0.20711-0.07284 0.37316 3.5365 0.36899 3.6094-0.004 4.9711-0.1736 3.026-0.37655zm469.24 0.0226c-1.1602-0.22347-3.0586-0.22347-4.2188 0-1.1602 0.22345-0.21093 0.40628 2.1094 0.40628s3.2695-0.18283 2.1094-0.40628zm-42.188-0.9375c-1.1602-0.22347-3.0586-0.22347-4.2188 0-1.1602 0.22345-0.21093 0.40628 2.1094 0.40628s3.2695-0.18283 2.1094-0.40628zm55.302-0.002c-1.1662-0.22424-2.8537-0.21573-3.75 0.0189-0.89633 0.23465 0.0579 0.41812 2.1203 0.40772 2.0625-0.0104 2.7959-0.2024 1.6297-0.42664zm-182.54-1.5784c0.0159-0.0562 4.762-5.2195 10.547-11.474 5.7849-6.2539 10.518-11.68 10.518-12.057 0-2.5237-7.2818 1.1004-12.062 6.0032-2.905 2.9794-8.2291 8.4411-11.831 12.137l-6.5497 6.7198 4.6747-0.61325c2.5711-0.3373 4.6877-0.6593 4.7036-0.71557zm31.846-0.0261c8.7656-0.28962 28.594-0.78608 44.062-1.1032 15.469-0.31715 28.384-0.73266 28.701-0.92336 0.3169-0.19069 8.3325-0.39113 17.812-0.4454 27.286-0.15623 64.238-1.7302 86.143-3.6692 11.086-0.98133 27.117-2.2279 35.625-2.7701 57.931-3.6922 56.745-3.314 30.938-9.8628-14.077-3.5723-20.501-5.2602-25.312-6.6517-2.3203-0.67101-10.969-2.7669-19.219-4.6576s-16.898-4.0285-19.219-4.7507c-4.8557-1.5113-19.631-4.7714-27.188-5.9987-8.3175-1.3509-21.611-3.7773-25.723-4.6953-6.1473-1.3722-30.731-5.0512-59.12-8.8477-29.111-3.8929-84.844-8.322-84.844-6.7424 0 0.52188 8.394 13.388 18.418 28.23l4.4321 6.5625 8.2734 0.0578c4.8357 0.0337 8.7148 0.49917 9.3356 1.12 1.705 1.705-2.7494 2.3395-12.992 1.8509-9.0873-0.4335-9.1824-0.4155-10.664 2.017-0.82248 1.3499-5.3614 6.7632-10.086 12.029-8.9649 9.9919-9.6552 11.009-6.9503 10.242 0.90234-0.2558 8.8125-0.70207 17.578-0.9917zm160.07 0.66739c-1.1662-0.22424-2.8537-0.21572-3.75 0.0189-0.89633 0.23465 0.0579 0.41813 2.1203 0.40772 2.0625-0.0104 2.7959-0.2024 1.6297-0.42664zm-252.46-1.822c1.0075-0.93262-22.035-22.827-24.024-22.827-3.7094 0-3.0991 1.384 4.2094 9.5456 3.9627 4.4253 8.5517 9.6111 10.198 11.524 2.8292 3.288 7.1174 4.0718 9.6171 1.7578zm12.475 0.99391c1.8496-1.8496-22.354-22.849-26.355-22.866l-4.0828-0.0175 2.2078 2.4716c6.4061 7.1717 20.2 20 21.861 20.33 3.1807 0.63311 5.7847 0.66656 6.3694 0.0819zm36.231-11.868 11.605-11.953-4.1169 0.004c-3.6116 0.004-4.589 0.49229-7.9633 3.9844-2.1155 2.1894-6.6507 6.6524-10.078 9.9179-6.2369 5.9423-7.6692 9.0097-4.5911 9.8325 2.852 0.76233 3.3027 0.41161 15.144-11.785zm11.014 1.1164c12.995-13.227 13.048-13.314 7.6779-12.51-3.617 0.5411-5.2454 1.7714-14.608 11.037-5.7955 5.7356-10.963 10.57-11.484 10.744-2.437 0.81233-0.52662 2.0345 3.1802 2.0345 4.0359 0 4.3734-0.25046 15.234-11.305zm11.598 10.602c0.022-0.71327 1.5746-2.5273 13.179-15.399 7.4718-8.2877 7.2672-7.8777 3.909-7.8363-2.0802 0.0257-4.7216 2.3404-13.677 11.985l-11.098 11.953h3.8328c2.108 0 3.8426-0.31641 3.8545-0.70313zm-102.49-2.4c-3.461-3.6247-16.078-18.505-16.83-19.849-0.4433-0.79213-3.4112-1.4941-7.97-1.885-12.704-1.0893-12.147-3.0732 0.90644-3.2327 3.5962-0.044 4.6289-0.44726 5.5399-2.1634 1.7662-3.3272 8.2563-13.492 14.736-23.08l5.946-8.7983-5.4773 0.49929c-3.0125 0.27462-9.0632 0.94438-13.446 1.4884-4.3828 0.54398-14.297 1.236-22.031 1.5378-7.7344 0.30182-14.906 0.58292-15.938 0.62466-7.971 0.32263-41.497 5.0448-52.5 7.3946-5.8617 1.2519-14.372 2.7254-21.094 3.6522-5.8766 0.8103-78.409 19.32-84.375 21.532-1.2891 0.47792-5.5078 1.7783-9.375 2.8898-13.009 3.739-54.272 17.39-55.116 18.234-1.518 1.518 4.148 1.8241 39.887 2.1553 21.512 0.19937 39.251 0.5012 39.421 0.67075 0.16955 0.16954 45.189 0.34926 100.04 0.39936l99.736 0.0911zm7.1764-3.2236c-2.7782-2.9648-7.4705-8.2301-10.427-11.7-4.5988-5.3978-5.821-6.3125-8.4557-6.3281-4.0377-0.0239-3.556 0.84777 6.7566 12.228 4.4096 4.8661 8.023 9.3748 8.0298 10.019 0.008 0.77548 1.5574 1.1719 4.5801 1.1719h4.5678zm12.18 4.224c-0.80508-1.3027-2.4208-3.1892-12.386-14.462-5.8011-6.5622-7.3582-7.8086-9.7547-7.8086-2.6442 0-2.746 0.11937-1.3993 1.6406 8.3303 9.4098 17.588 20.506 17.588 21.08 0 0.39438 1.5015 0.71707 3.3366 0.71707 2.4226 0 3.1391-0.31958 2.6155-1.1667zm301.08-0.65454 3.75-0.77565-3.2812-0.0538c-1.8047-0.0296-4.9688 0.29527-7.0312 0.72188l-3.75 0.77566 3.2812 0.0538c1.8047 0.0296 4.9688-0.29527 7.0312-0.72189zm-274.69-19.377c0-0.0577-4.8129-0.38567-10.695-0.72879l-10.695-0.62384 8.7714 8.2288c4.8243 4.5258 9.4263 8.9839 10.227 9.9069 1.3012 1.5006 2.3927-6.1553 2.3927-16.783zm26.602-1.1109c-8.3726-0.34615-8.7632 0.0424-8.8957 8.8485l-0.10636 7.0712 7.8673-7.8207 7.8673-7.8207zm-349.18-0.4263c6.0138-15.303 11.768-27.22 13.364-27.679 1.1016-0.31703-4.9945 15.423-11.33 29.254-5.3711 11.725-3.4487 10.239 3.1692-2.451 3.3111-6.349 7.983-14.497 10.382-18.106 2.3989-3.6094 6.1331-9.6211 8.2982-13.359 2.1651-3.7383 4.3398-6.7969 4.8326-6.7969 1.4568 0 1.0393 1.691-1.3359 5.4107-3.6222 5.6725-19.582 32.777-22.357 37.969-4.4258 8.2805-2.0763 5.9543 5.615-5.5595 14.047-21.028 11.599-17.869 30.519-39.39 6.2436-7.1023 9.0805-9.2354 9.0805-6.8278 0 0.53771-1.8082 2.9635-4.0182 5.3906-4.3824 4.8129-13.086 15.447-18.857 23.04-2.011 2.6458-3.9175 5.0215-4.2367 5.2793-2.471 1.9957-19.189 26.25-18.094 26.25 0.46329 0 1.2844-0.94922 1.8247-2.1094 1.5419-3.3111 14.784-17.077 20.2-20.999 2.6948-1.9515 5.1106-3.7731 5.3685-4.0479 1.804-1.923 3.6529-2.8214 4.1503-2.0166 0.31199 0.50481-3.7637 4.4823-9.0572 8.8389-5.2934 4.3566-11.446 10.04-13.673 12.629-2.2265 2.5893-4.3358 5.0281-4.6875 5.4194-1.3322 1.4826 2.3822-1.0031 7.7981-5.2186 7.4729-5.8165 16.999-12.183 18.23-12.183 2.1681 0 0.8087 2.8566-2.0579 4.3244-1.6758 0.85803-6.3463 4.0077-10.379 6.9993-4.0326 2.9916-7.8294 5.6176-8.4375 5.8357-0.60806 0.21804-0.8612 0.66338-0.56255 0.98965 0.50771 0.55467 4.6399-0.82051 27.127-9.0277 4.9059-1.7905 15.242-5.0247 22.969-7.187 7.7269-2.1623 17.424-4.9253 21.549-6.14 15.95-4.6966 24.79-6.973 32.864-8.4624 4.6125-0.85089 11.972-2.5572 16.355-3.7918 4.3828-1.2346 15.352-3.5451 24.375-5.1345 9.0234-1.5894 21.047-3.7165 26.719-4.7269 50.306-8.9618 138.33-12.239 211.88-7.8891 19.877 1.1758 25.154 1.5304 35.156 2.3624 5.9297 0.49323 14.578 1.325 19.219 1.8483 4.6406 0.52331 14.766 1.608 22.5 2.4105 20.438 2.1204 35.896 4.0149 41.25 5.0553 2.5781 0.50101 8.2734 1.5295 12.656 2.2854 12.959 2.2353 53.069 11.007 67.031 14.659 17.372 4.5441 21.037 5.5372 29.062 7.8761 4.6406 1.3523 10.668 3.2894 13.395 4.3046 10.764 4.0081 8.6618 1.591-4.7458-5.4572-14.267-7.4999-33.497-18.74-36.042-21.067-2.0857-1.907-2.036-4.3946 0.0546-2.7281 0.89845 0.7162 12.44 7.4118 42.807 24.835 1.8047 1.0354 4.5469 2.5191 6.0938 3.2972 1.5469 0.77804 4.0781 2.3437 5.625 3.4792 4.1339 3.0346 7.0312 4.3985 7.0312 3.3099 0-0.51204-2.0039-2.097-4.4531-3.5221s-4.875-2.928-5.3906-3.3398c-1.7261-1.3784-13.087-8.5699-16.406-10.385-1.8047-0.98702-7.532-4.8829-12.727-8.6575-10.218-7.4237-30.174-21.043-30.835-21.043-0.883 0-8.6039-5.577-10.271-7.4187-2.8782-3.1804-0.32854-2.2584 7.0622 2.5539 12.578 8.19 29.917 19.38 31.505 20.334 0.85926 0.51562 4.3291 2.8052 7.7107 5.088s8.8906 5.9453 12.242 8.139c3.3516 2.1937 7.3594 4.8728 8.9062 5.9535 6.9103 4.8281 10.13 6.6616 11.118 6.3321 0.58822-0.19607 0.22669-0.80756-0.80824-1.3671-2.5149-1.3596-30.16-21.759-60.287-44.487-8.4092-6.3437-16.53-12.138-18.047-12.875-2.8772-1.3993-3.8252-4.7527-1.3436-4.7527 1.9746 0 26.701 17.947 39.98 29.018 17.648 14.715 25.534 20.683 27.27 20.639 0.64899-0.0163-0.0856-1.1218-1.6325-2.4568-22.759-19.641-40.552-36.889-38.055-36.889 1.3041 0 26.126 21.601 35.127 30.57 5.3661 5.3464 15.522 13.868 15.977 13.406 0.49071-0.49852-11.656-14.22-21.284-24.043-4.1632-4.2477-7.3224-7.9702-7.0203-8.2723 1.1912-1.1912 6.231 2.5436 9.8068 7.2673 2.0725 2.7379 8.0931 9.4076 13.379 14.822 5.286 5.4141 10.599 11.097 11.806 12.628 3.8008 4.8204 3.5697 1.8304-0.30024-3.8835-3.582-5.2888-12.603-22.447-34.417-65.463-11.305-22.293-11.994-23.941-23.898-57.188-20.194-56.398-37.834-181.41-25.598-181.41 1.2233 0 1.3548 0.86597 0.81881 5.3906-1.6886 14.254-1.794 31.172-0.19421 31.172 6.3246 0 43.696-29.011 43.696-33.92 0-1.638-5.1526-2.0275-41.25-3.118-9.0234-0.27259-22.945-0.69697-30.938-0.94307-20.954-0.64522-46.441-1.2775-75.938-1.8838-14.18-0.29148-40.336-0.93601-58.125-1.4323s-53.016-1.3128-78.281-1.8145c-25.266-0.50168-53.531-1.1465-62.812-1.4328-55.676-1.7179-180.11-0.82445-182.68 1.3117-1.2507 1.038-8.4108 15.162-22.154 43.702-4.2211 8.7656-8.0589 16.67-8.5285 17.565-0.46957 0.89535-0.85374 2.0601-0.85374 2.5884 0 0.52824-0.82526 2.7488-1.8339 4.9346-12.436 26.95-40.404 112.4-43.153 131.85-0.43026 3.044-1.4899 8.6338-2.3548 12.422-0.8649 3.788-2.1503 9.4185-2.8565 12.512-2.3215 10.17-9.8023 50.611-11.619 62.812-0.53745 3.6094-2.0115 13.102-3.2756 21.094-1.9731 12.474-2.8044 21.19-2.4866 26.071 0.19088 2.9308 2.1188-0.68413 7.0303-13.182zm337-6.0922c-0.0954-3.8299-0.20032-4.0595-0.74969-1.6406-0.59674 2.6274-0.31164 6.0938 0.5012 6.0938 0.19767 0 0.3095-2.0039 0.24849-4.4531zm53.548 1.4752c0-0.6066-4.2188-8.1464-9.375-16.755-5.1562-8.6087-9.375-16.128-9.375-16.71 0-0.60514-1.5727-1.0574-3.6769-1.0574h-3.6769l6.0207 9.9288c3.3114 5.4608 6.0206 10.093 6.0206 10.294 0 0.20102 1.4049 2.5885 3.122 5.3056 1.7171 2.717 3.3953 5.6885 3.7292 6.6032 0.94757 2.5955 7.2112 4.6716 7.2112 2.3902zm9.6357-0.53772c-0.72289-1.9191-3.2598-6.1676-11.19-18.74-3.1753-5.034-6.2832-10.272-6.9064-11.64-0.96997-2.1289-6.7114-4.3162-8.2103-3.1279-0.32297 0.25604 10.303 18.218 13.86 23.43 1.4078 2.0625 3.4686 5.543 4.5794 7.7344 2.1869 4.3142 9.4213 6.4694 7.8673 2.3438zm-124.97-12.52c4.3938-7.0139 9.1794-14.542 10.635-16.729 3.0548-4.5914 2.9516-4.9659-1.1427-4.147-2.6399 0.52798-4.1318 2.3079-11.989 14.303-4.9355 7.5352-9.7633 14.843-10.728 16.241-2.3941 3.4658-2.2685 3.7095 1.7409 3.3758 3.3926-0.28239 3.7311-0.66683 11.484-13.044zm2.9345 9.9253c0.90447-1.5388 2.9953-5.329 4.6463-8.4228 2.5546-4.787 6.3851-11.012 12.836-20.859 1.3235-2.0204 1.267-2.1094-1.3397-2.1094-2.7916 0-6.7842 4.9867-12.385 15.469-1.102 2.0625-2.5267 4.5535-3.1658 5.5355-8.3347 12.806-8.6438 13.678-4.7458 13.378 1.675-0.12875 3.0571-1.1237 4.1545-2.9907zm87.842-5.3759c-8.455-15.548-13.085-25.281-11.83-24.868 1.1654 0.38413 8.2922 12.49 15.42 26.192 3.4656 6.6624 4.3326 7.3478 9.2955 7.3478h3.1752l-6.1821-10.547c-3.4001-5.8008-7.5002-12.876-9.1112-15.722-1.611-2.8463-3.4003-5.9629-3.9761-6.9258-0.90166-1.5078-2.6079-1.8151-12.296-2.2141l-11.249-0.46329 0.35584 4.5766c0.19571 2.5172 0.45553 10.272 0.57738 17.233l0.22153 12.656 8.7863 0.27107c8.1285 0.25078 8.7346 0.14551 8.0968-1.4062-0.37922-0.92253-0.92744-2.5138-1.2183-3.5361-0.29082-1.0223-3.1531-6.9286-6.3607-13.125-6.4512-12.463-7.6298-15.485-6.0382-15.485 0.57663 0 3.6637 5.3116 6.86 11.804 11.918 24.205 9.744 21.615 19.095 22.751 0.60248 0.0732-1.0266-3.7693-3.6202-8.5388zm-76.43 2.11c3.3592-6.2372 8.7746-15.468 13.284-22.644 3.8973-6.2015 2.3735-9.2731-2.8283-5.701-1.2432 0.85373-20.091 32.385-20.091 33.611 0 3.2206 7.1766-0.70211 9.6348-5.2664zm9.8582-0.9375c7.831-15.238 12.767-24.071 14.538-26.016l1.9209-2.1094h-3.3371c-3.6835 0-4.7252 1.4219-15.454 21.094-2.5309 4.6406-5.3859 9.6272-6.3446 11.081l-1.743 2.6437 3.6439-0.29997c3.4482-0.28383 3.8121-0.62727 6.7756-6.3937zm22.36 5.2655c0.0737-0.0601 0.29235-7.5975 0.48584-16.75l0.35179-16.641h-2.5762c-2.0922 0-2.9517 0.74851-4.5752 3.9844-4.3632 8.6966-15.157 27.93-15.948 28.419-2.5957 1.6042 0.38721 2.0531 10.644 1.6016 6.3164-0.27806 11.545-0.55469 11.618-0.61475zm8.5595-16.75 0.25602-16.641h-2.7565-2.7565l-0.0183 16.932-0.0183 16.932 2.5188-0.29092 2.5187-0.29092 0.256-16.641zm321.69 14.531c-1.3594-2.1544-5.5297-5.2479-6.1877-4.5899-0.59411 0.5941 1.0275 2.2724 4.3945 4.5481 2.9777 2.0126 3.0376 2.014 1.7932 0.0418zm-66.95-253.42c17.718-13.305 43.383-42.718 40.121-45.979-0.72362-0.72362-3.6417 1.436-10.254 7.5886-5.0833 4.73-11.563 10.13-14.399 11.999-7.389 4.8709-14.949 9.4794-18.791 11.455-3.4209 1.759-4.3408 6.3663-2.2914 11.477 0.36184 0.90235 0.40046 2.3115 0.0858 3.1315-1.4652 3.8184 0.70839 3.9475 5.5277 0.32839zm-521.88-12.99c1.5943-3.5656 3.3383-6.7545 3.8755-7.0866 2.0791-1.285 0.71802-3.1698-6.2888-8.7087-9.0645-7.1654-17.117-15.022-21.091-20.577-2.9237-4.087-3.0615-4.1628-3.3422-1.8378-0.25457 2.1087 5.4452 18.19 7.3677 20.787 0.38169 0.51563 1.6252 2.625 2.7632 4.6875 11.179 20.259 12.8 21.494 16.716 12.736zm11.805-23.98c6.338-12.188 10.887-20.402 11.916-21.516 2.214-2.3956 0.20362-2.6598-15.349-2.0174-40.197 1.6604-38.481 0.32406-21.818 16.997 19.207 19.217 18.721 19.092 25.25 6.5364zm545.16-18.646c-0.21485-0.20067-4.113-1.899-8.6627-3.774-4.5496-1.875-10.878-4.6118-14.062-6.0817-3.1848-1.4699-9.3764-4.024-13.759-5.6757-4.3828-1.6517-14.508-5.5263-22.5-8.6102-13.646-5.2653-31.174-11.19-56.25-19.012-10.216-3.1868-22.28-6.0546-33.75-8.0228-2.8359-0.48664-11.273-2.1413-18.75-3.677-15.666-3.2178-34.317-6.2928-43.125-7.1097-3.3516-0.31087-10.734-1.15-16.406-1.8648-5.6719-0.71475-13.613-1.5792-17.646-1.921l-7.334-0.6215 2.1777 3.2224c1.1977 1.7723 4.709 6.6171 7.8027 10.766 3.0938 4.1491 7.3125 10.206 9.375 13.461l3.75 5.9168 10.312 0.32937c17.721 0.56599 17.415 2.878-0.45685 3.4587l-11.57 0.37596-7.7685 8.2745c-10.362 11.037-10.599 10.613 5.9674 10.643 7.6055 0.0135 22.688 0.47459 33.516 1.0246 10.828 0.54999 31.922 1.1568 46.875 1.3486 14.953 0.19174 30.984 0.50835 35.625 0.70358 22.192 0.93361 83.992 4.607 96.094 5.7119 14.802 1.3514 21.155 1.7021 20.547 1.1344zm-554.46-10.02c7.2188-0.50368 24.516-1.1026 38.438-1.331 13.922-0.22835 36.07-0.64805 49.219-0.93266 13.148-0.28462 48.059-0.53207 77.578-0.54989l53.672-0.0324-5.0305-7.2128c-5.5526-7.9614-6.2404-8.3188-16.376-8.5081-9.9894-0.18661-6.8839-2.3396 4.4692-3.0983 5.2969-0.35403 9.7253-0.7759 9.8409-0.9375s2.896-4.0907 6.1787-8.7313 8.2071-11.42 10.943-15.065c6.257-8.3359 6.2975-8.1689-1.8224-7.525-3.7383 0.29646-10.383 0.76048-14.766 1.0312-12.892 0.79625-27.408 2.3497-30.938 3.3108-1.8047 0.49143-4.8761 0.89587-6.8253 0.89874-5.2724 0.007-31.818 4.3284-49.425 8.0446-8.5078 1.7957-17.367 3.6581-19.688 4.1388-11.345 2.3502-27.798 6.1533-37.5 8.6684-5.9297 1.5371-11.625 3.0093-12.656 3.2715-8.6974 2.2113-53.975 17.112-67.734 22.291-6.9977 2.6339-9.291 4.9686-3.75 3.8175 1.6758-0.34811 8.9531-1.045 16.172-1.5487zm279.84-0.71628c0-0.43371 2.7422-4.2976 6.0938-8.5864s6.0938-8.048 6.0938-8.3538c0-0.54413-30.003-0.43764-30.459 0.10812-0.12721 0.15234-0.45126 3.9684-0.72012 8.4801l-0.48883 8.2031h4.115 4.115v-7.3907c0-7.8718 0.42878-8.4923 5.8973-8.534 3.0632-0.0234 1.9171 15.159-1.2098 16.026-1.782 0.49376-1.2764 0.67182 2.1094 0.74287 2.4492 0.0514 4.4531-0.2614 4.4531-0.69512zm10.825-4.6021c5.1688-7.9445 11.675-14.47 11.675-11.71 0 0.39156-2.9432 4.3994-6.5405 8.9062-9.1708 11.49-5.0498 12.722 4.8404 1.4469 3.2554-3.7111 7.079-7.9623 8.497-9.4471s2.578-2.7727 2.5778-2.8619c-0.00029-0.15293-10.42-0.004-14.564 0.20872-1.657 0.0849-14.498 16.265-14.498 18.268 0 2.9002 4.9159-0.0515 8.0124-4.8109zm18.431-0.46875c2.7716-3.2226 6.2037-7.4414 7.627-9.375l2.5877-3.5156h-2.4826c-2.5358 0-7.2247 4.5044-14.204 13.645-3.1339 4.1044-3.0999 4.3147 0.80896 4.9961 0.34312 0.0598 2.8915-2.528 5.6631-5.7506zm-82.373 0.35554c-0.89228-1.3557-2.1818-3.5807-2.8656-4.9444-0.68379-1.3637-1.8673-2.9974-2.6301-3.6304-0.76274-0.63302-1.3868-1.7321-1.3868-2.4424 0-0.85096-1.1192-1.2915-3.2812-1.2915-1.8047 0-3.2812 0.42693-3.2812 0.94874 0 2.2379 8.7488 13.965 10.65 14.276 3.772 0.61637 4.571-0.21723 2.7949-2.9158zm17.493 3.1435c0-1.5146-9.837-15.452-10.906-15.452-1.8928 0-1.592 1.3532 1.531 6.8869 3.2878 5.8256 3.9692 10.141 0.98877 6.2627-0.98011-1.2755-2.9467-4.756-4.3703-7.7344-2.4896-5.2088-5.7854-7.1858-8.1077-4.8635-0.5422 0.5422 3.3781 7.7414 6.9743 12.808 1.6807 2.3677 13.89 4.2073 13.89 2.0928zm13.839-7.4834-0.24498-7.9687-10.133-0.00001c-10.944-0.00002-10.644-0.23194-6.6807 5.1562 1.1378 1.5469 2.9692 4.6055 4.0699 6.7969l2.0011 3.9844h5.6165 5.6166zm-33.51-20.7c2.8359-4.4226 5.5781-8.5358 6.0938-9.1404 0.51562-0.60461 2.8152-3.6305 5.1102-6.7243s4.8202-6.4009 5.6116-7.3492c1.3467-1.6137 1.2672-1.7038-1.2413-1.4062-2.1329 0.25303-3.6709 1.7537-7.5317 7.3492-2.6684 3.8672-7.6898 11.145-11.159 16.172-5.7183 8.2872-6.108 9.1406-4.1736 9.1404 1.6531-0.00017 3.2948-1.8111 7.2899-8.0413zm6.6448 2.1822c2.3656-3.2227 6.7413-9.6562 9.7239-14.297 2.9826-4.6406 6.2871-9.3851 7.3433-10.543 1.0562-1.1581 1.6873-2.3388 1.4023-2.6238-1.239-1.239-5.7166 0.99592-7.5964 3.7917-1.127 1.6761-5.3739 8.0572-9.4376 14.18-4.0637 6.123-8.2505 12.082-9.304 13.242l-1.9156 2.1094 2.7416-0.00001c2.2792-0.00002 3.4669-0.98821 7.0426-5.8594zm10.948-5.1928c14.581-22.224 15.155-23.316 11.55-21.964-1.4475 0.54259-14.119 18.14-18.444 25.615-0.5614 0.97015-1.7629 2.584-2.67 3.5863-1.7605 1.9453-1.2958 3.8155 0.94794 3.8155 0.75094 0 4.6284-4.9735 8.6165-11.052zm70.53 10.17c0-0.48469-2.479-4.598-5.5089-9.1406s-7.9081-11.951-10.84-16.462l-5.3316-8.2031h-6.5033c-7.1054 0-7.2287 0.0689-4.9294 2.7543 2.3314 2.7229 15.26 25.348 15.867 27.769 0.45852 1.8269 3.4708 3.227 6.9429 3.227 0.97002 0-3.5787-8.5664-8.3141-15.658-2.1353-3.1976-3.8824-6.0371-3.8824-6.3099 0-0.27285-1.5139-2.8627-3.3643-5.7553-2.6617-4.1609-3.0175-5.1924-1.7036-4.9394 1.5958 0.30732 8.8131 9.7172 8.8163 11.495 0.00086 0.47502 0.58841 1.5297 1.3057 2.3438 0.71727 0.81404 3.4662 5.277 6.1087 9.9176 3.7844 6.6459 5.3488 8.5632 7.3678 9.0297 3.8394 0.88707 3.9694 0.88488 3.9694-0.0672zm8.4375 0.37136c0-0.46268-13.713-21.744-17.901-27.78-0.95735-1.38-1.8565-3.0675-1.998-3.75-0.23229-1.1198-5.4197-2.9537-6.1864-2.187-0.95032 0.95031 19.995 32.608 22.137 33.458 2.0161 0.80046 3.9487 0.92729 3.9487 0.25912zm-63.021-1.8333c0.1431-0.11461 0.1431-6.4898 0-14.167l-0.26018-13.959-9.3725 14.062c-5.1549 7.7344-9.509 14.363-9.6758 14.73-0.25874 0.56993 18.577-0.0811 19.308-0.66742zm35.834 0.89168c0-0.98427-3.5196-7.5287-10.176-18.921-3.6846-6.3064-6.6993-11.896-6.6993-12.422 0-0.52567-0.48633-0.95576-1.0807-0.95576-0.78795 0-0.9161 2.8573-0.47302 10.547 0.33426 5.8008 0.60965 13.028 0.61199 16.061l0.005 5.5139 6.9752-0.44764c3.8364-0.24619 7.5278-0.0972 8.2031 0.33111 1.4196 0.90032 2.6342 1.0356 2.6342 0.29342zm-26.25-16.93c0-14.667-0.16529-16.443-1.4829-15.938-0.8156 0.31298-2.5263 0.56905-3.8016 0.56905h-2.3187l0.14792 14.297c0.18275 17.664 0.16197 17.578 4.2372 17.578h3.2181zm-209.06-183.32c0-0.59477 1.0886-3.3825 2.4191-6.195 3.866-8.172 3.9035-10.431 0.24967-15.019-6.3897-8.024-7.203-9.2826-10.036-15.53-1.6763-3.697-3.3049-6.126-3.8722-5.7754-0.53851 0.33283-0.78815 0.91412-0.55475 1.2918 0.2334 0.37764 0.89198 4.4618 1.4635 9.0758 1.2713 10.263 5.9313 28.97 8.0846 32.454 0.71179 1.1517 2.2457 0.945 2.2457-0.30263zm12.623-27.278c2.0436-4.2539 5.9457-11.156 8.6712-15.339 2.7255-4.1824 4.9554-7.936 4.9554-8.3412 0-0.77285-33.754 0.16875-34.549 0.96378-2.4383 2.4383 12.816 30.451 16.582 30.451 0.3438 0 2.2972-3.4805 4.3408-7.7344zm378.32-23.14c0-0.47858-2.3109-1.7348-5.1354-2.7916s-5.8831-2.2862-6.7969-2.732c-0.91379-0.44584-3.5599-1.6913-5.8802-2.7678-20.305-9.4199-29.972-14.447-44.531-23.159-9.2812-5.5537-17.086-10.405-17.344-10.78-0.25781-0.37506-2.3672-1.8556-4.6875-3.2901s-6.9609-4.6044-10.312-7.0443c-5.9801-4.3534-6.2258-4.4365-13.176-4.4546-6.87-0.0179-15.459-2.8935-17.237-5.7711-1.5804-2.5572-10.067-4.0297-19.383-3.363-10.594 0.75822-10.289-0.20524-2.8521 9.0106 4.3558 5.398 30.966 32.561 42.723 43.61l7.1198 6.6913 6.7934 0.56284c3.7364 0.30957 11.856 0.76125 18.043 1.0037 6.1875 0.24249 15.68 0.87342 21.094 1.4021 5.4141 0.52866 15.906 1.4117 23.316 1.9622 7.41 0.55058 15.847 1.3499 18.75 1.7764 7.4801 1.0989 9.4961 1.1273 9.4961 0.13382zm-101.26-7.4423c-0.004-0.32661-1.3746-1.5481-3.0469-2.7144-6.0749-4.2369-29.909-28.103-40.072-40.127-1.2891-1.525-4.8625-5.7213-7.9409-9.3252-3.0784-3.6038-5.7222-6.7352-5.875-6.9587-1.5421-2.255-2.1502 2.6819-1.2776 10.373 0.54805 4.8307 1.1811 17.151 1.4067 27.379 0.48789 22.118-1.3528 19.654 14.865 19.903 17.854 0.27458 35.678 1.3624 36.604 2.2341 0.84699 0.79694 5.3458 0.15241 5.336-0.76447zm-201.09-0.64729c7.2188-0.22801 19.031-0.66705 26.25-0.97563 9.654-0.41269 73.597-1.4012 85.541-1.3224 0.91501 0.006 1.1808-11.146 1.2345-51.789 0.0376-28.488 0.0853-54.75 0.10587-58.359 0.0415-7.2852-1.1502-8.712-2.1898-2.6218-0.37001 2.1674-1.0644 4.6987-1.5432 5.625-0.47875 0.92634-1.1409 3.1608-1.4714 4.9655-0.70895 3.8711-9.6263 31.363-13.228 40.781-8.198 21.438-30.376 60.469-34.36 60.469-1.4782 0-0.84014-1.564 2.3354-5.7246 15.537-20.355 35.412-66.318 46.376-107.24 5.7319-21.397 4.9331-22.397-3.5822-4.4836-9.59 20.174-12.294 24.602-22.504 36.846-9.1216 10.94-27.257 30.003-31.402 33.009-2.0625 1.4957-5.6484 4.3891-7.9688 6.4297-13.704 12.052-27.686 22.492-34.688 25.898-1.8047 0.87813-4.125 2.3054-5.1562 3.1716-3.6465 3.0632-24.493 13.21-29.766 14.488-5.7055 1.3831-2.5223 2.5615 5.1562 1.9089 4.2539-0.36155 13.641-0.84391 20.859-1.0719zm142.57-2.6305c-0.30903-1.102-0.77189-9.3864-1.0286-18.41-0.77774-27.339-2.5441-54.635-4.3073-66.562-3.4375-23.253-9.4661-54.916-10.673-56.057-0.38501-0.36397-0.34027 11.151 0.0994 25.588 0.43971 14.438 0.80849 46.576 0.81952 71.42l0.0201 45.17 2.3438 0.4555c1.2891 0.25051 3.3984 0.25088 4.6875 0.0008s3.3984-0.0537 4.6875 0.43645c2.9923 1.1377 4.0605 0.48702 3.3515-2.0414zm-23.974-0.8317c2.0512-33.369 0.72139-83.789 0.41193-90.933 0.27739-23.081-0.22845-14.387-0.35715-39.346-0.0791-19.577-0.72729-24.828-2.6758-21.675-0.57904 0.93691-0.70443 53.09-0.31236 129.92 0.10179 19.947 0.31572 23.203 1.5246 23.203 0.77344 0 1.4074-0.52734 1.4087-1.1719zm132.72-47.27c-0.33044-0.86112-0.0863-1.8837 0.54254-2.2723 0.88635-0.5478 0.85778-1.0507-0.12713-2.2374-0.72662-0.87552-1.5573-5.2203-1.9405-10.15-0.80412-10.343-2.1384-13.775-5.3552-13.775-1.2606 0-5.7281-1.0208-9.9276-2.2684-8.14-2.4183-22.877-4.8387-25.05-4.1143-2.6576 0.88588 4.3475 5.7253 16.945 11.707 12.459 5.9152 20.077 11.835 23.527 18.281 1.4959 2.7951-0.6799 2.016-2.8394-1.0167-2.812-3.9492-14.116-12.042-20.918-14.976-9.3391-4.0281-13.112-6.2827-17.02-10.17-2.9408-2.9256-4.1894-3.5596-6.3776-3.2385-7.5978 1.1151 3.2996 12.9 17.066 18.456 5.0464 2.0366 10.033 5.1283 14.206 8.8074 3.0028 2.6473 5.2243 3.8462 7.127 3.8462 1.5204 0 4.1978 1.0186 5.9499 2.2635 3.825 2.7178 4.9972 2.9579 4.1916 0.85837zm-52.1-2.59c0-0.22425-0.47062-1.5953-1.0458-3.0469-0.96706-2.4404-2.922-31.978-2.1951-33.167 0.59094-0.96667 29.857 2.6843 36.522 4.5562 3.6094 1.0136 7.7752 2.1253 9.2573 2.4703l2.6948 0.62728-2.4605-4.1985c-1.3533-2.3092-2.4605-5.2005-2.4605-6.4251 0-3.8526-15.304-7.8496-33.879-8.8484-11.06-0.592-11.16-0.618-11.66-3.03-1.37-6.688-5.32-22.347-6.05-23.996-0.45-1.031-1.42-3.351-2.14-5.156-1.311-3.2717-2.8034-4.0978-12.727-7.0438-2.6094-0.77468-2.8193-2.4558 2.1375 17.121 4.2302 16.708 4.31 18.464 0.80423 17.714-1.418-0.30328-9.042-1.0072-16.942-1.5643-7.9002-0.55708-15.416-1.4128-16.702-1.9016-3.5776-1.3602-7.3667-1.1708-6.1403 0.30694 0.54579 0.65762 1.1248 3.2688 1.2867 5.8027l0.29434 4.607 4.6875 1.203c2.5781 0.66168 12.465 1.6306 21.971 2.1531 20.824 1.1447 18.823-0.77304 19.785 18.96 0.77149 15.832 1.702 21.065 4.0058 22.53 1.1665 0.74174 10.957 1.0356 10.957 0.32884zm13.929-3.4297c5.7042-0.76718 7.5851-0.66543 10.867 0.58784 2.1827 0.83358 5.4066 1.3784 7.1643 1.2107l3.1958-0.30488-5.625-3.8003c-3.0938-2.0902-8.3672-4.9959-11.719-6.4571-6.348-2.7676-14.527-8.1913-15.327-10.163-0.69453-1.7134-0.70361 14.567-0.01 18.034 0.50353 2.5176 0.92129 2.9085 2.5781 2.4123 1.0875-0.32566 5.0814-1.0096 8.8754-1.5199zm-31.372-5.3032c-0.92181-7.0772-1.0434-8.8057-1.1869-16.875-0.15183-8.5365-0.33846-8.5209-9.9874 0.8338-4.3289 4.1969-8.8866 8.3102-10.128 9.1406-11.075 7.4076-12.462 9.153-6.4897 8.1644 11.693-1.9356 18.435-1.7176 20.949 0.67738 2.1312 2.0311 3.9902 2.9477 6.7752 3.3407 0.42381 0.0598 0.45462-2.317 0.0684-5.2819zm-30.641-2.7285c4.731-3.8088 12.316-10.423 22.116-19.288 1.5587-1.4098 3.6092-2.8093 4.5568-3.1101 2.9942-0.95031 1.9337-3.0014-1.7928-3.4676-3.164-0.39576-4.161 0.08631-9.9679 4.8193-3.5488 2.8925-9.6659 7.72-13.594 10.728-10.656 8.1599-10.645 8.146-9.4112 11.684 1.3502 3.8732 1.6469 3.8232 8.0926-1.366zm-4.3002-8.7131c4.9619-3.4853 12.421-9.7003 13.305-11.086 0.42074-0.65954 2.5301-2.3217 4.6875-3.6938 4.6154-2.9353 3.4255-3.7477-5.7416-3.9198-2.7372-0.05139-7.9286-0.55146-11.537-1.1112-7.637-1.1849-9.7494-0.75714-8.3929 1.6996 0.50472 0.91405 1.1877 6.1969 1.5177 11.74 0.43155 7.2484 0.90369 9.8924 1.6817 9.4178 0.59493-0.36295 2.6106-1.7339 4.4794-3.0465zm92.168-33.104c-0.0553-8.3257-1.6814-16.626-3.2572-16.626-2.1925 0-14.487 5.9441-21.058 10.181-2.5781 1.6624-6.9163 4.1158-9.6404 5.452-6.2981 3.0894-6.5323 2.9678 8.8313 4.5859 11.816 1.2444 19.951 3.1602 22.336 5.2599 2.1703 1.9104 2.8453-0.23294 2.788-8.8532zm-38.995 0.1994c8.4-6.489 28.69-17.762 31.96-17.762 1.4213 0 1.1897-1.1035-0.70816-3.3736-1.7268-2.0655-4.7738-2.3634-6.8866-0.67326-0.68755 0.55002-2.7266 1.7381-4.5313 2.6402-1.8047 0.90209-4.9688 2.9942-7.0312 4.649-2.0625 1.6549-6.7848 4.45-10.494 6.2114-6.1808 2.935-6.7485 3.444-6.7969 6.0931-0.0834 4.5711 0.8439 5.0292 4.4865 2.216zm-29.85-3.542c0-1.2335-9.8903-8.2568-20.625-14.646-5.4141-3.2224-11.491-6.9807-13.505-8.3517-4.8844-3.3252-4.919-3.1935-2.4066 9.1742l2.1818 10.74 6.5337 1.1021c13.566 2.2882 27.821 3.3034 27.821 1.9813zm4.2413-3.6484c-0.36019-1.92-1.5673-4.3779-2.6825-5.462-2.5105-2.4406-12.313-9.7971-13.054-9.7971-0.92062 0-16.917-9.4001-20.089-11.805-2.5794-1.9556-3.3216-2.1173-5.3906-1.1746-4.2314 1.928-3.391 2.8354 9.1271 9.8553 1.9927 1.1175 4.3278 2.6354 5.189 3.3731 0.86118 0.73773 2.3028 1.6026 3.2035 1.922 2.3248 0.82432 14.744 9.3302 17.81 12.199 2.3251 2.1748 5.3228 4.2779 6.203 4.352 0.18629 0.01568 0.044-1.5424-0.31619-3.4624zm37.048-9.1355c4.1161-2.7868 8.3224-5.3331 9.3474-5.6584 6.4006-2.0315-1.6646-3.3736-10.628-1.7685-9.332 1.6712-11.877 1.5829-16.075-0.55745-4.6015-2.346-4.9547-1.9432-3.0885 3.5227 0.8322 2.4375 2.039 6.6172 2.6817 9.2882l1.1686 4.8564 4.5546-2.308c2.505-1.2694 7.9223-4.5881 12.038-7.3749zm-39.61-3.545c-1.06-3.223-2.63-7.758-3.48-10.079l-1.5427-4.2188-7.0026-0.6026c-3.8514-0.33143-8.1902-1.0697-9.6418-1.6406-3.1023-1.2202-10.017-1.3897-10.017-0.2455 0 0.8086 12.439 8.6604 19.219 12.131 2.0625 1.0559 5.9993 3.8534 8.7484 6.2168s5.1463 4.297 5.327 4.297-0.5435-2.6367-1.6093-5.8594zm201.3 397.54c-1.025-0.59424-2.2907-1.4502-2.8125-1.9021-0.85308-0.73876-2.3676-1.7482-8.4306-5.6188-4.097-2.6156-12.537-9.2168-18.299-14.312-3.3516-2.9638-7.7291-6.8295-9.7279-8.5905-3.8551-3.3965-4.0779-4.9822-0.43056-3.0642 1.9601 1.0308 10.334 7.8475 15.31 12.463 1.7949 1.6648 9.7854 7.9338 13.91 10.913 1.0708 0.77344 3.2318 2.5965 4.8022 4.0513s4.0155 3.2586 5.4335 4.0085c1.418 0.74986 2.5781 1.7744 2.5781 2.2768 0 1.1168-0.0234 1.1146-2.3324-0.22401zm-20.768-8.5659c-8.172-6.0665-13.794-11.342-13.37-12.547 0.20951-0.59522 2.4495 0.76854 5.0632 3.0826 2.5781 2.2826 7.3242 5.9437 10.547 8.1359 3.2226 2.1922 5.8594 4.3056 5.8594 4.6964 0 1.6739-2.9744 0.43724-8.1-3.3677zm12.823-2.2582c-15.257-13.784-40.474-39.413-39.419-40.065 0.65299-0.40358 6.2916 4.6316 14.323 12.79 7.2851 7.4004 14.655 14.582 16.377 15.96 4.3615 3.4884 18.058 16.473 18.058 17.12 0 1.7333-3.1898-0.24941-9.339-5.8048zm-57.59-237.96c-0.87651-2.2841-0.66951-9.7617 0.27022-9.7617 1.2306 0 1.9753 2.4823 1.9753 6.5838 0 3.8289-1.2933 5.6592-2.2455 3.1778z"/>
</svg>
